<svg version="1" xmlns="http://www.w3.org/2000/svg" width="682.667" height="682.667" viewBox="0 0 512.000000 512.000000"><path d="M110.7 1.1C77 3.9 52 14.7 32.7 34.9 15.1 53.3 5.7 74 1.8 102.5c-1.9 14.5-1.9 291 0 306.4 3.6 28.1 13.3 49.8 30.1 67.5 16.7 17.5 37.1 27.9 65.5 33.4 7 1.3 26.4 1.6 146.6 1.9 149.2.5 162.9.1 180.8-4.2 22.3-5.4 36.9-13.4 52.3-28.5 18.2-17.8 26.9-34.6 32.1-61.5 2.1-10.8 2.2-13 2.5-150 .4-141.1.1-158.8-3.3-176.5-4.3-22.6-15.6-43.3-32.4-59.3C456.6 13.2 432.2 3.3 400 1c-15.3-1.1-275.6-1-289.3.1zM96.4 205.4c6.5 2.7 5.8 6.5-.7 4.2-4.6-1.5-7.8-1.1-10.6 1.5-4.7 4.4-3.4 11.6 2.6 14.4 3.2 1.5 3.9 1.6 7.3.2 5-1.9 7.4-.7 4.4 2.3-2.8 2.9-9 3.6-13.7 1.7-9.9-4.2-10.2-19.3-.4-24.1 4-1.9 6.8-2 11.1-.2zm120.7.1c11.6 6 7.3 25.5-5.6 25.5-6.5 0-12.5-6.3-12.5-13.3 0-10.1 9.6-16.6 18.1-12.2zm32.3-.1c6.5 2.7 5.8 6.5-.7 4.2-4.6-1.5-7.8-1.1-10.6 1.5-4.6 4.3-3.4 11.6 2.4 14.3 2.9 1.4 3.9 1.5 7.4.3 5.2-1.8 7.5-.6 4.5 2.3-4.8 4.9-15.6 3-19.5-3.4-3.9-6.4-1.3-15.7 5.4-19 4-1.9 6.8-2 11.1-.2zm156 0c6.5 2.7 5.8 6.5-.7 4.2-4.6-1.5-7.8-1.1-10.6 1.5-4.7 4.4-3.3 12.1 2.5 14.5 2.8 1.2 4 1.2 7.3 0 5.2-1.7 7.4-.5 4.5 2.4-4.8 4.9-15.6 3-19.5-3.4-3.9-6.4-1.3-15.7 5.4-19 4-1.9 6.8-2 11.1-.2zm-283.9 2.1c2.7 2.6 3.3 7.3 1.3 9.3-.8.8-.7 2.5.7 6.7 1.2 4.1 1.4 6 .7 6.7-1.6 1.6-4.2-.8-4.2-3.8 0-2.9-2.5-5.4-5.6-5.4-2.1 0-2.4.5-2.4 3.4 0 4.3-.9 6.6-2.5 6.6-2 0-2.5-2.5-2.5-13 0-5.4.3-10.5.6-11.4.5-1.2 2-1.6 6.1-1.6 4.4 0 5.8.5 7.8 2.5zm14.2 2.2l4 4.6 3.3-4.7c1.9-2.5 3.8-4.5 4.4-4.3 2.3.8 1.5 3.4-2.4 8.7-3.6 4.8-4 5.9-4 11.2 0 4.3-.4 5.8-1.4 5.8-1.9 0-2.6-2.2-2.6-7.9 0-4-.7-5.6-4-10.1-4.1-5.6-4.4-6.2-3.3-7.3 1.2-1.3 2.1-.7 6 4zm31.5-3.3c6.4 4.8 2.5 14.6-5.9 14.6-3.1 0-3.2.1-3.5 4.7-.2 3.5-.7 4.8-1.8 4.8-1.2 0-1.6-2.1-1.8-11.4-.1-6.3 0-12.1.2-12.8.7-1.7 10.5-1.7 12.8.1zm26.3.6c0 1-1.2 1.6-3.7 1.8l-3.7.3-.3 10.7c-.2 8.7-.6 10.7-1.8 10.7-1.2 0-1.6-2-1.8-10.8l-.3-10.7h-3.4c-1.8 0-3.7-.5-4-1-1.5-2.4 1-3.1 9.8-2.8 7.4.2 9.2.6 9.2 1.8zm70.5 7.2c.5 8.6 1.6 11.2 5.1 12.3 1.9.6 5.9-1 7.1-2.9.4-.6.8-4.8.8-9.4 0-6.6.3-8.4 1.6-8.9.9-.3 2 0 2.6.8 1.3 2 .3 17.1-1.3 19.7-3.6 5.8-12.3 6.6-17 1.6-2.1-2.2-2.4-3.7-2.8-11-.3-9.1.2-11.8 2.2-11.2.8.3 1.4 3.4 1.7 9zm40.5-6.7c2.6 2.5 3.3 7.3 1.4 9.2-.7.7-.5 2.7.6 6.8 1.2 4 1.4 6 .6 6.8-1.5 1.5-4.1-1-4.1-3.9s-2.5-5.4-5.6-5.4c-2.1 0-2.4.5-2.4 3.4 0 1.9-.3 4.1-.6 5-.8 2.1-3 2.1-3.8 0-.8-2.1-.8-22.9.1-23.7.3-.4 3.1-.7 6-.7 4.4 0 5.8.5 7.8 2.5zm23 0c2.7 2.6 3.3 7.3 1.3 9.3-.8.8-.7 2.5.7 6.7 1.2 4.1 1.4 6 .7 6.7-1.6 1.6-4.2-.8-4.2-3.8 0-2.9-2.5-5.4-5.6-5.4-2.1 0-2.4.5-2.4 3.4 0 4.3-.9 6.6-2.5 6.6-2 0-2.5-2.5-2.5-13 0-5.4.3-10.5.6-11.4.5-1.2 2-1.6 6.1-1.6 4.4 0 5.8.5 7.8 2.5zm26.3-.8c-.2 1.4-1.5 1.9-6.1 2.1l-5.7.3v3.4c0 3.4 0 3.4 5.3 3.7 3.8.2 5.2.7 5.2 1.8s-1.4 1.6-5.2 1.8l-5.3.3v6.9h6.1c5.2 0 6 .2 5.7 1.7-.3 1.5-1.5 1.8-7.8 1.8h-7.5l-.3-11.4c-.1-6.3 0-12.1.2-12.8.4-.9 2.8-1.3 8.1-1.3 6.7 0 7.6.2 7.3 1.7zm15.4 7l6.3 8.7.3-7.5c.3-9.3.7-10.6 2.7-8.9 2.3 1.9 1.8 24.5-.5 24.5-.8 0-4.3-3.7-7.7-8.3l-6.2-8.4-.3 8.4c-.2 6.6-.6 8.3-1.8 8.3-1.2 0-1.6-2.1-1.8-11.4-.4-17.4.1-17.7 9-5.4zm52.5-4l4 4.6 3.3-4.7c1.9-2.5 3.8-4.5 4.4-4.3 2.3.8 1.5 3.4-2.4 8.7-3.6 4.8-4 5.9-4 11.2 0 4.3-.4 5.8-1.4 5.8-1.9 0-2.6-2.2-2.6-7.9 0-4-.7-5.6-3.9-10-3.5-4.7-4.4-8.1-2.1-8.1.4 0 2.6 2.1 4.7 4.7zM101.2 260c5.1 7.1 9.5 13 9.8 12.9.3 0 4.6-5.7 9.5-12.7 7.2-10.2 9.5-12.8 11.7-13 1.8-.2 3.1.4 4.2 2 1.4 1.9 1.6 6.1 1.6 28.9 0 24.7-.1 26.9-1.9 29-1.6 2-2.3 2.2-4.7 1.4l-2.9-1-.5-20-.5-20-6.8 9.1c-3.7 5.1-7.4 9.5-8.3 9.8-2.7 1-5.8-1.7-12.1-10.6l-5.8-8.3-.5 19.8c-.4 16.1-.8 20-2 20.7-2.2 1.4-4.1 1.2-6.2-.7-1.7-1.5-1.8-3.7-1.8-29.1 0-24.2.2-27.8 1.7-29.4 3.6-4 5.6-2.5 15.5 11.2zm82.1-11.6c.8.8 6 13.7 11.6 28.6 9.7 25.9 10.1 27.3 8.6 29.6-1.8 2.7-4.7 3.1-6.9.9-.8-.9-2.5-4.3-3.7-7.6l-2.2-6-10.6.3-10.6.3-2.6 6.5c-2 5.1-3.2 6.7-5.3 7.5-2.4.8-3.1.6-4.6-1.3-1.4-1.7-1.6-2.9-1-5 2.4-8.3 19.4-52 20.7-53.5 1.9-2.1 4.7-2.2 6.6-.3zm59.5.1c7.7 3.3 11.5 9 11.6 17.7.1 4.8-.4 6.3-3.1 10.2-2 2.8-2.8 4.8-2.2 5.2 2 1.2 4.9 8.9 4.9 13 0 2.8.5 4.4 1.5 4.8 1.9.7 2 6 .1 7.5-2.3 1.9-6.7.9-8.8-2-1.1-1.4-2.2-4.6-2.4-7-.9-7.8-1.4-8.9-4.7-10.9-2.2-1.4-5-2-8.9-2H225v10.2c0 8-.3 10.5-1.7 12-2 2.2-4.6 2.3-6.7.2-1.4-1.3-1.6-5.4-1.6-29.4s.2-28.1 1.6-29.4c2.2-2.2 20.9-2.3 26.2-.1zm37 .1c2.1 1.4 2.2 2.2 2.2 15.2v13.7l14.8-14.8c15.2-15.2 18.1-17 21.2-13.2 2.2 2.7.2 5.8-9.9 15.9l-10 9.9 10.5 13.7c5.7 7.5 10.4 14.2 10.4 15 0 1.9-3 5-5 5s-4.7-2.8-14.5-15.8c-4.3-5.6-8.1-10.2-8.4-10.2-.4 0-2.6 1.9-4.9 4.3-4.1 4.2-4.2 4.4-4.2 11.4 0 5.2-.4 7.6-1.6 8.7-2 2.1-4.3 2-6.6-.1-1.7-1.5-1.8-3.7-1.8-29 0-26 .1-27.4 2-29.3 2.4-2.4 2.9-2.4 5.8-.4zm92.6 0c2.1 2 2 4.3-.1 6.6-1.4 1.6-3.3 1.8-14.5 1.8H345v16h11.5c11.1 0 11.5.1 13.1 2.5 1.5 2.3 1.5 2.7 0 5-1.6 2.4-2 2.5-13.1 2.5H345v16h12.7c10.4 0 13 .3 14.5 1.7 2.2 2 2.3 4.1.1 6.5-1.4 1.6-3.4 1.8-17.6 1.8-13.5 0-16.3-.3-17.9-1.7-1.7-1.5-1.8-3.7-1.8-29.1 0-24.2.2-27.8 1.7-29.4 1.4-1.6 3.4-1.8 17.9-1.8 13.4 0 16.5.3 17.8 1.6zm56 0c2.1 2 2 4.3-.1 6.6-1.3 1.4-3.1 1.8-9.5 1.8H411v24.4c0 20.9-.2 24.7-1.6 26-2 2.1-4.3 2-6.6-.1-1.6-1.5-1.8-3.6-1.8-26V257h-7.3c-7.4 0-9.9-.9-11-4.1-.3-.9.1-2.6.9-3.8 1.5-2 2.3-2.1 22.4-2.1 17.6 0 21.1.2 22.4 1.6z"/><path d="M208.4 209.5c-2.9 1.2-5.4 5-5.4 8.1 0 3 3 7.2 5.8 8.2 3.8 1.3 8.3-.6 10-4.2 1.6-3.5 1.5-5.1-.3-8.5-1.9-3.8-6.2-5.3-10.1-3.6zM112 213c0 3.6.3 4 2.4 4 2.6 0 5.6-2.3 5.6-4.4 0-2-2.2-3.6-5.2-3.6-2.6 0-2.8.3-2.8 4zM158 213c0 3.4.3 4 2.1 4 3.3 0 5.9-1.9 5.9-4.4 0-2.5-1.7-3.6-5.6-3.6-2.1 0-2.4.4-2.4 4zM295 213c0 3.6.3 4 2.4 4 2.6 0 5.6-2.3 5.6-4.4 0-2-2.2-3.6-5.2-3.6-2.6 0-2.8.3-2.8 4zM318 213c0 3.6.3 4 2.4 4 2.6 0 5.6-2.3 5.6-4.4 0-2-2.2-3.6-5.2-3.6-2.6 0-2.8.3-2.8 4zM176.6 274.7c-1.6 4.3-3.1 8.4-3.3 9-.4 1 1.3 1.3 6.7 1.3 5.3 0 7.1-.3 6.8-1.3-2.4-6.9-6.4-16.7-6.8-16.7-.3 0-1.8 3.5-3.4 7.7zM225 266v9h6c7.7 0 11.5-1.9 13-6.4.9-2.8.8-4-.5-6.5-2.1-4.2-4.3-5.1-11.9-5.1H225v9z"/></svg>